<svg viewBox="0 0 40 40" fill="none" xmlns="http://www.w3.org/2000/svg">
<path d="M15.9168 25.25L30.0419 11.125C30.3752 10.7917 30.7641 10.625 31.2085 10.625C31.653 10.625 32.0419 10.7917 32.3752 11.125C32.7085 11.4583 32.8752 11.8542 32.8752 12.3125C32.8752 12.7708 32.7085 13.1667 32.3752 13.5L17.0835 28.8333C16.7502 29.1667 16.3613 29.3333 15.9168 29.3333C15.4724 29.3333 15.0835 29.1667 14.7502 28.8333L7.58352 21.6667C7.25018 21.3333 7.09046 20.9375 7.10435 20.4792C7.11824 20.0208 7.29185 19.625 7.62518 19.2917C7.95852 18.9583 8.35435 18.7917 8.81268 18.7917C9.27102 18.7917 9.66685 18.9583 10.0002 19.2917L15.9168 25.25Z" fill="black"/>
</svg>
