<svg width="30" height="30" viewBox="0 0 30 30" fill="none" xmlns="http://www.w3.org/2000/svg">
<mask id="mask0_105_2463" style="mask-type:alpha" maskUnits="userSpaceOnUse" x="0" y="0" width="30" height="30">
<rect width="30" height="30" fill="#D9D9D9"/>
</mask>
<g mask="url(#mask0_105_2463)">
<path d="M8.75 26.25C8.0625 26.25 7.47396 26.0052 6.98438 25.5156C6.49479 25.026 6.25 24.4375 6.25 23.75V7.5C5.89583 7.5 5.59896 7.38021 5.35938 7.14062C5.11979 6.90104 5 6.60417 5 6.25C5 5.89583 5.11979 5.59896 5.35938 5.35938C5.59896 5.11979 5.89583 5 6.25 5H11.25C11.25 4.64583 11.3698 4.34896 11.6094 4.10938C11.849 3.86979 12.1458 3.75 12.5 3.75H17.5C17.8542 3.75 18.151 3.86979 18.3906 4.10938C18.6302 4.34896 18.75 4.64583 18.75 5H23.75C24.1042 5 24.401 5.11979 24.6406 5.35938C24.8802 5.59896 25 5.89583 25 6.25C25 6.60417 24.8802 6.90104 24.6406 7.14062C24.401 7.38021 24.1042 7.5 23.75 7.5V23.75C23.75 24.4375 23.5052 25.026 23.0156 25.5156C22.526 26.0052 21.9375 26.25 21.25 26.25H8.75ZM21.25 7.5H8.75V23.75H21.25V7.5ZM11.25 21.25H13.75V10H11.25V21.25ZM16.25 21.25H18.75V10H16.25V21.25Z" fill="#222222" fill-opacity="0.4"/>
</g>
</svg>
