<svg width="180" height="180" viewBox="0 0 180 180" fill="none" xmlns="http://www.w3.org/2000/svg">
<path d="M134.688 107.318C137.334 107.004 137.87 111.172 135.362 111.753C134.937 111.797 134.551 111.789 134.126 111.753C132.81 110.055 132.576 108.392 134.688 107.318Z" fill="#8F8F8F" fill-opacity="0.5"/>
<path d="M46.5479 95.9722C49.2194 96.327 49.1418 99.8096 46.5479 100.563C45.924 100.498 45.4535 100.117 44.9808 99.74C44.2099 98.0423 44.5799 96.3455 46.5479 95.9722Z" fill="#8F8F8F" fill-opacity="0.5"/>
<path d="M49.3722 131.552C52.2075 131.411 52.5207 134.903 50.1017 135.972C48.2128 136.459 47.7158 134.295 47.8231 132.906C48.2719 132.21 48.6271 131.891 49.3722 131.552Z" fill="#8F8F8F" fill-opacity="0.5"/>
<path d="M126.964 36.5405C129.677 37.2873 129.515 40.5346 126.964 41.2233C126.584 41.1141 126.214 40.9846 125.843 40.8509C124.411 39.0863 124.732 37.1714 126.964 36.5405Z" fill="#8F8F8F" fill-opacity="0.5"/>
<path d="M114.614 133.694C117.182 133.81 117.454 137.872 114.948 138.238C112.231 138.227 111.763 134.634 114.614 133.694Z" fill="#8F8F8F" fill-opacity="0.5"/>
<path d="M72.8908 43.4024C75.3692 43.1503 76.1064 47.0109 73.3904 48.0183C70.958 48.2118 70.1119 44.6817 72.8908 43.4024Z" fill="#8F8F8F" fill-opacity="0.5"/>
<path d="M140.024 33.4072C144.042 33.2212 145.017 39.1305 140.905 40.2266C136.505 40.5081 135.805 33.8499 140.024 33.4072Z" fill="#8F8F8F" fill-opacity="0.5"/>
<path d="M29.5507 48.0184C33.1809 46.4828 35.7026 54.2787 30.4672 54.6482C25.5262 55.2318 25.2203 48.2649 29.5507 48.0184Z" fill="#8F8F8F" fill-opacity="0.5"/>
<path d="M40.628 151.154C46.2296 150.471 47.0556 158.112 42.2489 159.786C37.1013 160.155 35.5812 152.588 40.628 151.154Z" fill="#8F8F8F" fill-opacity="0.5"/>
<path d="M140.905 53.5957C141.36 53.5579 141.812 53.5799 142.266 53.5957C143.403 54.5488 143.417 55.6511 143.414 57.0765C147.756 56.9828 148.36 62.5294 143.414 61.9393C143.459 63.5643 143.624 65.8212 141.675 66.3748C139.097 66.4567 139.242 63.8512 139.52 61.9393C137.844 61.9887 136.893 62.005 135.907 60.4326C135.535 57.3718 137.269 57.6659 139.129 56.8827C139.78 56.0111 139.04 54.7582 140.905 53.5957Z" fill="#ECECEC"/>
<path d="M70.4141 133.362C72.8072 133.213 72.6444 136.022 72.6247 137.689C75.1784 137.65 77.7071 139.238 75.8622 141.704C75.2493 142.523 73.5395 142.505 72.6247 142.64C72.7713 144.424 72.8177 146.153 70.8888 146.9C68.4896 147.026 68.8505 144.015 68.861 142.416C63.2724 142.599 63.72 138 68.5219 137.13C68.633 135.597 68.8785 134.054 70.4141 133.362Z" fill="#ECECEC"/>
<path d="M44.0651 66.636L52.671 66.6334C54.2594 66.633 55.9779 66.4963 57.5432 66.7392C59.6349 67.0636 60.1936 69.5228 58.7004 70.9975C57.9623 71.7265 56.2714 71.4479 55.3444 71.4431L50.9631 71.4325L42.4039 71.436C39.5822 71.4364 36.2238 72.3364 35.2085 69.1843C36.0368 65.3619 40.7478 66.629 44.0651 66.636Z" fill="#8F8F8F" fill-opacity="0.5"/>
<path d="M36.3896 116.63C37.1266 116.564 37.8986 116.611 38.6407 116.605L55.3089 116.63C56.5838 116.63 57.8652 116.577 59.1388 116.595C61.2155 116.624 62.2419 119.561 60.7522 120.963C59.9949 121.676 58.4204 121.456 57.4833 121.455L53.4553 121.442L32.7486 121.443C31.6578 121.447 30.0986 121.739 29.2127 120.924C27.7492 119.578 28.3852 117.247 30.2452 116.791C31.7295 116.428 34.7308 116.626 36.3896 116.63Z" fill="#8F8F8F" fill-opacity="0.5"/>
<path d="M140.546 120.925C148.679 120.462 152.547 131.535 148.398 137.991C146.477 140.979 144.369 141.73 141.103 142.416C128.968 141.759 128.091 122.414 140.546 120.925Z" fill="#8F8F8F" fill-opacity="0.5"/>
<path d="M96.556 45.0146C104.981 44.5177 103.857 54.3618 110.409 56.1384C113.881 57.0799 116.625 54.9715 120.047 54.7065C123.87 54.4104 127.253 57.5104 128.374 61.0039C130.273 66.9204 125.319 70.2122 127.967 74.9381C129.813 78.2335 133.493 78.1519 136.14 80.4014C139.623 83.36 140.839 88.2204 138.752 92.3434C135.92 97.9379 131.855 96.4324 128.821 100.075C125.429 104.148 128.498 107.513 128.834 111.568C129.159 115.489 126.693 119.544 123.002 120.903C118.446 122.579 115.954 119.668 111.752 120.053C103.53 120.806 106.453 131.315 96.8422 132.167C87.5481 131.951 89.6345 122.458 82.9154 120.339C79.8512 119.373 77.2748 121.036 74.3078 121.404C70.0308 121.935 66.3165 119.584 64.903 115.534C62.7098 109.252 66.5265 108.142 65.9398 103.102C65.0758 95.6819 54.9312 99.0759 53.8943 88.8524C52.7624 77.6878 65.8064 79.7703 65.9197 72.2594C65.9643 69.3167 64.3579 67.5454 64.0682 64.816C63.6443 60.8183 66.3414 56.4334 70.1441 55.1218C74.9478 53.4648 77.3807 56.7692 81.5225 56.3643C90.0562 55.5299 86.9338 45.8518 96.556 45.0146ZM96.556 50.1426C91.0471 50.4208 92.0884 60.8127 81.6327 61.4193C77.3269 61.6692 72.4878 57.8805 69.4739 61.2794C67.5341 63.4678 69.0635 65.8248 69.8213 68.1342C71.6461 73.6962 69.0907 79.873 63.9492 82.5107C61.1235 83.9603 58.0238 84.3785 58.3331 88.4143C58.5668 91.4637 61.1607 92.0617 63.4606 93.1807C68.6886 95.7246 71.5883 101.457 70.0304 107.189C69.2005 110.242 67.3363 112.933 70.3694 115.485C72.63 117.388 75.2208 116.036 77.6773 115.382C83.6264 113.8 88.798 117.074 91.6364 122.182C93.0649 124.753 93.1038 126.71 96.556 127.055C100.309 126.761 100.267 124.781 101.743 121.962C104.675 116.358 110.1 113.912 116.052 115.469C118.922 116.22 121.185 117.229 123.393 114.579C125.207 112.401 123.825 110.34 123.221 107.974C121.709 102.052 124.254 96.3557 129.497 93.4879C132.008 92.1142 135.727 91.4099 135.343 87.673C135.006 84.39 132.178 83.7734 129.701 82.5782C124.189 79.9175 121.76 74.1924 123.228 68.3682C123.725 66.3964 124.813 64.7472 124.115 62.6538C122.299 57.2054 116.529 61.2624 113.087 61.4823C108.469 61.778 104.097 58.8591 101.851 54.9434C100.398 52.4085 99.9501 50.1657 96.556 50.1426Z" fill="#8F8F8F" fill-opacity="0.5"/>
<path d="M96.5529 50.1426C99.947 50.1657 100.395 52.4086 101.848 54.9434C104.094 58.8592 108.465 61.7781 113.084 61.4823C116.526 61.2624 122.296 57.2054 124.112 62.6538C124.81 64.7472 123.722 66.3964 123.225 68.3683C121.756 74.1925 124.185 79.9175 129.698 82.5782C132.174 83.7734 135.002 84.39 135.34 87.673C135.724 91.4099 132.005 92.1142 129.494 93.488C124.251 96.3558 121.706 102.052 123.218 107.974C123.822 110.34 125.204 112.401 123.39 114.579C121.182 117.229 118.919 116.22 116.048 115.469C110.097 113.912 104.672 116.358 101.739 121.962C100.264 124.781 100.306 126.761 96.5529 127.055C93.1006 126.71 93.0617 124.753 91.6333 122.182C88.7948 117.074 83.6232 113.8 77.6742 115.382C75.2177 116.036 72.6268 117.388 70.3663 115.485C67.3332 112.933 69.1973 110.242 70.0273 107.189C71.5852 101.457 68.6855 95.7246 63.4574 93.1808C61.1575 92.0618 58.5636 91.4637 58.33 88.4143C58.0207 84.3786 61.1203 83.9603 63.9461 82.5108C69.0875 79.873 71.6429 73.6962 69.8181 68.1342C69.0604 65.8248 67.5309 63.4678 69.4708 61.2795C72.4847 57.8805 77.3238 61.6692 81.6296 61.4193C92.0852 60.8127 91.044 50.4208 96.5529 50.1426ZM91.0366 77.0308C89.2743 79.0079 85.6291 84.3799 84.7178 86.7739C81.9769 93.975 88.2432 93.4157 92.9856 93.5043C92.437 94.9587 92.3718 96.7128 92.1198 98.254C91.8577 99.8569 90.6673 103.76 92.9856 104.414C92.2782 105.548 91.9763 107.66 91.4535 109.015C94.8677 109.689 98.5501 110.032 101.886 108.789C107.406 107.563 111.54 102.677 114.613 98.2086C114.715 98.2637 116.143 98.176 116.453 98.2086C116.963 97.7123 117.812 95.9966 118.037 95.291C117.63 94.5647 116.797 94.291 116.648 93.3178C116.529 92.5413 116.984 90.4011 117.082 89.502C117.657 84.2234 116.58 81.687 114.364 77.3335L114.333 77.2723C113.929 77.3661 102.54 76.3736 101.886 76.2396C101.176 75.4005 100.752 74.3846 100.091 73.5349C100.858 72.8103 99.859 71.9545 99.3113 71.419C97.3233 69.4771 96.325 70.5781 94.7701 72.4445C93.5084 73.9584 92.2957 75.5142 91.0366 77.0308ZM79.5624 76.2396L79.1402 76.787C73.1151 84.3204 75.8818 97.0706 82.4136 103.513C83.9829 105.061 86.6113 106.109 85.2533 108.789C85.8846 109.102 86.5855 109.555 87.2452 109.768C88.6163 108.078 89.4152 108.432 91.4535 109.015C91.9763 107.66 92.2782 105.548 92.9856 104.414C90.6673 103.76 91.8577 99.8569 92.1198 98.254C92.3718 96.7128 92.437 94.9587 92.9856 93.5043C88.2432 93.4157 81.9769 93.975 84.7178 86.7739C85.6291 84.3799 89.2743 79.0079 91.0366 77.0308C90.0303 76.5195 82.3186 76.9109 80.5586 76.787C79.8892 76.713 80.3005 76.1215 79.5624 76.2396Z" fill="#8F8F8F" fill-opacity="0.5"/>
<path d="M114.615 98.2085C114.717 98.2636 116.144 98.1759 116.455 98.2085C119.538 99.2103 117.119 103.063 115.892 104.593C109.782 112.213 99.8435 116.88 90.1911 113.56C88.2097 112.879 86.3871 112.213 87.2472 109.768C88.6183 108.078 89.4171 108.432 91.4554 109.015C94.8696 109.689 98.552 110.032 101.888 108.789C107.408 107.563 111.542 102.677 114.615 98.2085Z" fill="#8F8F8F" fill-opacity="0.5"/>
<path d="M83.0953 110.084C77.999 108.185 72.5159 97.3398 71.7441 92.3305C70.8026 86.2216 71.7717 79.2493 75.3346 74.1386C76.9866 71.7693 78.058 70.6996 80.1387 73.1911C80.7267 74.273 80.2144 75.3339 79.563 76.2396L79.1408 76.787C73.1157 84.3203 75.8824 97.0705 82.4141 103.513C83.9834 105.061 86.6119 106.109 85.2539 108.789C84.5719 109.433 84.032 109.881 83.0953 110.084Z" fill="#8F8F8F" fill-opacity="0.5"/>
<path d="M81.0514 69.1843C81.8363 66.9282 84.1589 65.6413 86.1933 64.6514C98.4925 58.6657 113.335 64.2226 119.161 76.5682C121.247 80.9874 122.412 89.4 120.689 94.2167C120.228 95.5072 119.256 95.5741 118.036 95.2908C117.63 94.5644 116.796 94.2907 116.647 93.3176C116.528 92.5411 116.983 90.4009 117.081 89.5018C117.656 84.2232 116.579 81.6868 114.363 77.3333L114.332 77.2721C113.929 77.3659 102.539 76.3734 101.885 76.2394C101.175 75.4003 100.752 74.3844 100.091 73.5347C100.857 72.8101 99.8584 71.9542 99.3107 71.4188C97.3227 69.4769 96.3243 70.5779 94.7695 72.4443C93.5077 73.9582 92.295 75.514 91.0359 77.0305C90.0297 76.5193 82.318 76.9107 80.5579 76.7868C79.8886 76.7128 80.2998 76.1213 79.5618 76.2394C80.2132 75.3337 80.7255 74.2729 80.1375 73.1909C80.5737 72.3319 81.1827 71.6797 81.8905 71.0402C81.5174 70.4249 81.2225 69.8886 81.0514 69.1843Z" fill="#8F8F8F" fill-opacity="0.5"/>
<path d="M81.8905 71.0402C84.0076 72.5898 84.2552 71.4143 86.1565 70.2129C95.2144 64.4892 109.595 67.6179 114.332 77.272C113.929 77.3659 102.539 76.3734 101.885 76.2394C101.175 75.4003 100.752 74.3844 100.091 73.5347C100.857 72.8101 99.8584 71.9542 99.3107 71.4187C97.3227 69.4769 96.3243 70.5778 94.7695 72.4443C93.5077 73.9582 92.295 75.514 91.0359 77.0305C90.0297 76.5193 82.318 76.9106 80.5579 76.7868C79.8886 76.7128 80.2998 76.1213 79.5618 76.2394C80.2132 75.3337 80.7255 74.2729 80.1375 73.1909C80.5737 72.3319 81.1827 71.6797 81.8905 71.0402Z" fill="#ECECEC"/>
<path d="M103.275 95.2909C104.417 95.6818 104.298 97.2601 104.207 98.2085C103.839 97.5047 103.575 96.4222 102.871 95.9723C103 95.7409 103.136 95.5161 103.275 95.2909Z" fill="#ECECEC"/>
<path d="M102.871 95.9722C103.575 96.4222 103.838 97.5046 104.207 98.2085C104.133 99.7687 101.547 108.219 101.885 108.789C98.5487 110.032 94.8663 109.689 91.4521 109.015C91.975 107.659 92.2768 105.548 92.9843 104.414C95.9281 104.874 100.622 97.8462 102.871 95.9722Z" fill="#ECECEC"/>
<path d="M91.0392 77.0307C92.2983 75.5141 93.511 73.9584 94.7727 72.4445C96.3276 70.578 97.326 69.477 99.3139 71.4189C99.8617 71.9544 100.86 72.8103 100.094 73.5348C99.226 74.6089 99.3796 80.0166 99.0309 81.6755C103.001 81.6627 107.899 80.891 107.908 86.9047C107.913 90.5795 105.244 92.5813 103.278 95.2909C103.139 95.5161 103.003 95.7409 102.875 95.9723C100.626 97.8462 95.9321 104.874 92.9882 104.414C90.6699 103.759 91.8604 99.8568 92.1224 98.2539C92.3744 96.7127 92.4396 94.9586 92.9882 93.5042C88.2458 93.4156 81.9796 93.9749 84.7205 86.7738C85.6318 84.3798 89.277 79.0078 91.0392 77.0307ZM95.0772 79.2894C93.5753 80.835 89.6768 86.6284 88.916 88.6117C90.6581 88.4601 95.5213 88.4962 96.8163 89.587C98.6345 91.1185 95.9395 96.186 97.3601 95.2909C99.0265 92.6104 101.69 90.5914 103.2 88.1859C105.106 85.1489 98.1769 87.1075 96.2865 86.375C92.9287 85.0739 95.5099 80.8765 95.0772 79.2894Z" fill="#8F8F8F" fill-opacity="0.5"/>
</svg>
