<svg width="40" height="40" viewBox="0 0 40 40" fill="none" xmlns="http://www.w3.org/2000/svg">
<path d="M19.9997 36.6667C17.0552 36.6667 14.6525 36.2014 12.7913 35.2709C10.9302 34.3403 9.99967 33.1389 9.99967 31.6667C9.99967 31 10.2011 30.382 10.6038 29.8125C11.0066 29.2431 11.5691 28.75 12.2913 28.3334L14.9163 30.7917C14.6663 30.9028 14.3955 31.0278 14.1038 31.1667C13.8122 31.3056 13.583 31.4723 13.4163 31.6667C13.7775 32.1112 14.6108 32.5 15.9163 32.8334C17.2219 33.1667 18.583 33.3334 19.9997 33.3334C21.4163 33.3334 22.7844 33.1667 24.1038 32.8334C25.4233 32.5 26.2636 32.1112 26.6247 31.6667C26.4302 31.4445 26.1802 31.2639 25.8747 31.125C25.5691 30.9862 25.2775 30.8612 24.9997 30.75L27.583 28.25C28.3608 28.6945 28.958 29.2014 29.3747 29.7709C29.7913 30.3403 29.9997 30.9723 29.9997 31.6667C29.9997 33.1389 29.0691 34.3403 27.208 35.2709C25.3469 36.2014 22.9441 36.6667 19.9997 36.6667ZM20.0413 27.5C22.7913 25.4723 24.8608 23.4375 26.2497 21.3959C27.6386 19.3542 28.333 17.3056 28.333 15.25C28.333 12.4167 27.4302 10.2778 25.6247 8.83337C23.8191 7.38893 21.9441 6.66671 19.9997 6.66671C18.0552 6.66671 16.1802 7.38893 14.3747 8.83337C12.5691 10.2778 11.6663 12.4167 11.6663 15.25C11.6663 17.1112 12.3469 19.0487 13.708 21.0625C15.0691 23.0764 17.1802 25.2223 20.0413 27.5ZM19.9997 31.6667C16.083 28.7778 13.1594 25.9723 11.2288 23.25C9.29829 20.5278 8.33301 17.8612 8.33301 15.25C8.33301 13.2778 8.68717 11.5487 9.39551 10.0625C10.1038 8.57643 11.0136 7.33337 12.1247 6.33337C13.2358 5.33337 14.4858 4.58337 15.8747 4.08337C17.2636 3.58337 18.6386 3.33337 19.9997 3.33337C21.3608 3.33337 22.7358 3.58337 24.1247 4.08337C25.5136 4.58337 26.7636 5.33337 27.8747 6.33337C28.9858 7.33337 29.8955 8.57643 30.6038 10.0625C31.3122 11.5487 31.6663 13.2778 31.6663 15.25C31.6663 17.8612 30.7011 20.5278 28.7705 23.25C26.84 25.9723 23.9163 28.7778 19.9997 31.6667ZM19.9997 18.3334C20.9163 18.3334 21.7011 18.007 22.3538 17.3542C23.0066 16.7014 23.333 15.9167 23.333 15C23.333 14.0834 23.0066 13.2987 22.3538 12.6459C21.7011 11.9931 20.9163 11.6667 19.9997 11.6667C19.083 11.6667 18.2983 11.9931 17.6455 12.6459C16.9927 13.2987 16.6663 14.0834 16.6663 15C16.6663 15.9167 16.9927 16.7014 17.6455 17.3542C18.2983 18.007 19.083 18.3334 19.9997 18.3334Z" fill="white"/>
</svg>
